<svg width="56" height="36" viewBox="0 0 56 36" fill="none" xmlns="http://www.w3.org/2000/svg">
<path d="M43.0049 36C50.1749 36 56.0049 30.17 56.0049 23C56.0049 16.63 51.4349 11.26 45.2349 10.19C44.8949 5.61 48.6749 1.75 48.7149 1.71C49.0349 1.38 49.1049 0.889999 48.8749 0.5C48.6849 0.18 48.3549 0 48.0049 0C47.9249 0 47.8349 0.0100021 47.7449 0.0400009C29.5949 5.08 29.9749 22.09 30.0049 23.02C30.0249 30.18 35.8449 36 43.0049 36Z" fill="#8B1202" fill-opacity="0.75"/>
<path d="M0.00488281 23.02C0.0248833 30.18 5.84488 36 13.0049 36C20.1749 36 26.0049 30.17 26.0049 23C26.0049 16.63 21.4349 11.26 15.2349 10.19C14.8949 5.61 18.6749 1.75 18.7149 1.71C19.0349 1.38 19.1049 0.889999 18.8749 0.5C18.6849 0.18 18.3549 0 18.0049 0C17.9249 0 17.8349 0.0100021 17.7449 0.0400009C-0.405115 5.08 -0.0251179 22.09 0.00488281 23.02Z" fill="#8B1202" fill-opacity="0.75"/>
</svg>
